<?xml version="1.0" encoding="UTF-8" standalone="no"?>
<!-- Created with Inkscape (http://www.inkscape.org/) -->

<svg
        version="1.1"
        id="svg345"
        xml:space="preserve"
        width="682.66669"
        height="682.66669"
        viewBox="0 0 682.66669 682.66669"
        xmlns="http://www.w3.org/2000/svg"
><defs
     id="defs349"><clipPath
       clipPathUnits="userSpaceOnUse"
       id="clipPath359"><path
         d="M 0,512 H 512 V 0 H 0 Z"
         id="path357" /></clipPath></defs>
    <g
            id="g351"
            transform="matrix(2.2651937,0,0,-2.2651937,-238.43686,921.34251)"><g
       id="g353"><g
         id="g355"
         clip-path="url(#clipPath359)"><g
           id="g361"
           transform="translate(396.6807,256)"><path
             d="m 0,0 c 0,77.696 -62.984,140.681 -140.681,140.681 -77.696,0 -140.68,-62.985 -140.68,-140.681 0,-77.696 62.984,-140.681 140.68,-140.681 C -62.984,-140.681 0,-77.696 0,0"
             style="fill:none;stroke:#000000;stroke-width:20;stroke-linecap:round;stroke-linejoin:round;stroke-miterlimit:10;stroke-dasharray:none;stroke-opacity:1"
             id="path363" /></g><g
            id="g365"
            transform="translate(396.6807,256)"><path
             d="m 0,0 c 0,77.696 -62.984,140.681 -140.681,140.681 -77.696,0 -140.68,-62.985 -140.68,-140.681 0,-77.696 62.984,-140.681 140.68,-140.681 C -62.984,-140.681 0,-77.696 0,0 Z"
             style="fill:none;stroke:#000000;stroke-width:20;stroke-linecap:round;stroke-linejoin:round;stroke-miterlimit:10;stroke-dasharray:none;stroke-opacity:1"
             id="path367" /></g><g
            id="g369"
            transform="translate(227.1816,278.6445)"><path
             d="M 0,0 C -11.564,11.565 -30.314,11.565 -41.879,0"
             style="fill:none;stroke:#000000;stroke-width:20;stroke-linecap:round;stroke-linejoin:round;stroke-miterlimit:10;stroke-dasharray:none;stroke-opacity:1"
             id="path371" /></g><g
            id="g373"
            transform="translate(284.8184,278.6445)"><path
             d="M 0,0 C 11.564,11.565 30.314,11.565 41.879,0"
             style="fill:none;stroke:#000000;stroke-width:20;stroke-linecap:round;stroke-linejoin:round;stroke-miterlimit:10;stroke-dasharray:none;stroke-opacity:1"
             id="path375" /></g><g
            id="g377"
            transform="translate(293.1348,228.769)"><path
             d="m 0,0 c 4.808,0 8.525,-4.376 7.572,-9.09 -4.214,-20.836 -22.628,-36.523 -44.707,-36.523 -22.079,0 -40.493,15.687 -44.707,36.523 -0.953,4.714 2.765,9.09 7.572,9.09 z"
             style="fill:#000000;fill-opacity:1;fill-rule:nonzero;stroke:none"
             id="path379" /></g><g
            id="g381"
            transform="translate(256,436.832)"/><g
            id="g385"
            transform="translate(383.8672,383.8677)"/><g
            id="g389"
            transform="translate(128.1328,383.8677)"/><g
            id="g393"
            transform="translate(383.8672,128.1323)"/><g
            id="g397"
            transform="translate(128.1328,128.1323)"/><g
            id="g401"
            transform="translate(256,75.168)"/><g
            id="g405"
            transform="translate(436.832,256)"/><g
            id="g409"
            transform="translate(75.168,256)"/></g></g></g></svg>
