<svg id="Capa_1" enable-background="new 0 0 512 512" height="512" viewBox="0 0 512 512" width="512" xmlns="http://www.w3.org/2000/svg"><g><circle cx="256" cy="256" fill="#f9e6b9" r="140.681"/><g fill="#eba870"><path d="m256 105.319c-83.086 0-150.681 67.595-150.681 150.681s67.595 150.681 150.681 150.681 150.681-67.595 150.681-150.681-67.595-150.681-150.681-150.681zm0 281.362c-72.058 0-130.681-58.624-130.681-130.681s58.623-130.681 130.681-130.681 130.681 58.623 130.681 130.681-58.623 130.681-130.681 130.681z"/><path d="m227.182 243.355c2.559 0 5.118-.977 7.071-2.929 3.905-3.905 3.905-10.237 0-14.142-7.481-7.482-17.43-11.603-28.011-11.603s-20.529 4.121-28.011 11.603c-3.905 3.905-3.905 10.237 0 14.142 3.906 3.905 10.236 3.905 14.143 0 3.704-3.705 8.63-5.745 13.868-5.745s10.164 2.04 13.868 5.745c1.953 1.953 4.512 2.929 7.072 2.929z"/><path d="m305.758 214.682c-10.581 0-20.529 4.121-28.011 11.603-3.905 3.905-3.905 10.237 0 14.142 3.906 3.905 10.236 3.905 14.143 0 3.704-3.705 8.63-5.745 13.868-5.745s10.164 2.04 13.868 5.745c1.953 1.953 4.512 2.929 7.071 2.929s5.118-.977 7.071-2.929c3.905-3.905 3.905-10.237 0-14.142-7.481-7.483-17.429-11.603-28.01-11.603z"/><path d="m293.134 283.231h-74.269c-4.809 0-8.526 4.376-7.573 9.089 4.213 20.836 22.628 36.523 44.707 36.523s40.494-15.687 44.707-36.523c.954-4.712-2.763-9.089-7.572-9.089z"/><path d="m256 85.168c5.522 0 10-4.477 10-10v-65.168c0-5.523-4.478-10-10-10s-10 4.477-10 10v65.168c0 5.523 4.478 10 10 10z"/><path d="m383.867 138.132c2.559 0 5.118-.977 7.071-2.929l38.133-38.132c3.905-3.905 3.905-10.237 0-14.142s-10.235-3.905-14.143 0l-38.133 38.132c-3.905 3.905-3.905 10.237 0 14.142 1.954 1.953 4.513 2.929 7.072 2.929z"/><path d="m121.062 135.204c1.953 1.953 4.512 2.929 7.071 2.929s5.118-.977 7.071-2.929c3.905-3.905 3.905-10.237 0-14.142l-38.133-38.133c-3.906-3.905-10.236-3.905-14.143 0-3.905 3.905-3.905 10.237 0 14.142z"/><path d="m390.938 376.796c-3.906-3.905-10.236-3.905-14.143 0-3.905 3.905-3.905 10.237 0 14.142l38.133 38.132c1.954 1.954 4.512 2.93 7.072 2.93s5.118-.977 7.071-2.929c3.905-3.905 3.905-10.237 0-14.142z"/><path d="m121.062 376.796-38.133 38.132c-3.905 3.905-3.905 10.237 0 14.142 1.953 1.954 4.511 2.93 7.071 2.93 2.559 0 5.118-.977 7.071-2.929l38.133-38.132c3.905-3.905 3.905-10.237 0-14.142-3.904-3.905-10.234-3.905-14.142-.001z"/><path d="m256 426.832c-5.522 0-10 4.477-10 10v65.168c0 5.523 4.478 10 10 10s10-4.477 10-10v-65.168c0-5.523-4.478-10-10-10z"/><path d="m502 246h-65.168c-5.522 0-10 4.477-10 10s4.478 10 10 10h65.168c5.522 0 10-4.477 10-10s-4.478-10-10-10z"/><path d="m85.168 256c0-5.523-4.478-10-10-10h-65.168c-5.522 0-10 4.477-10 10s4.478 10 10 10h65.168c5.522 0 10-4.477 10-10z"/></g></g></svg>