<?xml version="1.0" encoding="UTF-8" standalone="no"?>
<!-- Created with Inkscape (http://www.inkscape.org/) -->

<svg
   version="1.1"
   id="svg255"
   xml:space="preserve"
   width="682.66669"
   height="682.66669"
   viewBox="0 0 682.66669 682.66669"
   xmlns="http://www.w3.org/2000/svg"
   xmlns:svg="http://www.w3.org/2000/svg"><defs
     id="defs259"><clipPath
       clipPathUnits="userSpaceOnUse"
       id="clipPath269"><path
         d="M 0,512 H 512 V 0 H 0 Z"
         id="path267" /></clipPath></defs><g
     id="g261"
     transform="matrix(1.3333333,0,0,-1.3333333,0,682.66667)"><g
       id="g263"><g
         id="g265"
         clip-path="url(#clipPath269)"><g
           id="g271"
           transform="translate(396.6807,256)"><path
             d="m 0,0 c 0,77.696 -62.984,140.681 -140.681,140.681 -77.696,0 -140.68,-62.985 -140.68,-140.681 0,-77.696 62.984,-140.681 140.68,-140.681 C -62.984,-140.681 0,-77.696 0,0 Z"
             style="fill:none;stroke:#000000;stroke-width:20;stroke-linecap:round;stroke-linejoin:round;stroke-miterlimit:10;stroke-dasharray:none;stroke-opacity:1"
             id="path273" /></g><g
           id="g275"
           transform="translate(227.1816,278.6445)"><path
             d="M 0,0 C -11.564,11.565 -30.314,11.565 -41.879,0"
             style="fill:none;stroke:#000000;stroke-width:20;stroke-linecap:round;stroke-linejoin:round;stroke-miterlimit:10;stroke-dasharray:none;stroke-opacity:1"
             id="path277" /></g><g
           id="g279"
           transform="translate(284.8184,278.6445)"><path
             d="M 0,0 C 11.564,11.565 30.314,11.565 41.879,0"
             style="fill:none;stroke:#000000;stroke-width:20;stroke-linecap:round;stroke-linejoin:round;stroke-miterlimit:10;stroke-dasharray:none;stroke-opacity:1"
             id="path281" /></g><g
           id="g283"
           transform="translate(293.1348,228.769)"><path
             d="m 0,0 c 4.808,0 8.525,-4.376 7.572,-9.09 -4.214,-20.836 -22.628,-36.523 -44.707,-36.523 -22.079,0 -40.493,15.687 -44.707,36.523 -0.953,4.714 2.765,9.09 7.572,9.09 z"
             style="fill:#000000;fill-opacity:1;fill-rule:nonzero;stroke:none"
             id="path285" /></g><g
           id="g287"
           transform="translate(256,436.832)"><path
             d="M 0,0 V 65.168"
             style="fill:none;stroke:#000000;stroke-width:20;stroke-linecap:round;stroke-linejoin:round;stroke-miterlimit:10;stroke-dasharray:none;stroke-opacity:1"
             id="path289" /></g><g
           id="g291"
           transform="translate(383.8672,383.8677)"><path
             d="M 0,0 38.133,38.132"
             style="fill:none;stroke:#000000;stroke-width:20;stroke-linecap:round;stroke-linejoin:round;stroke-miterlimit:10;stroke-dasharray:none;stroke-opacity:1"
             id="path293" /></g><g
           id="g295"
           transform="translate(128.1328,383.8677)"><path
             d="M 0,0 -38.133,38.132"
             style="fill:none;stroke:#000000;stroke-width:20;stroke-linecap:round;stroke-linejoin:round;stroke-miterlimit:10;stroke-dasharray:none;stroke-opacity:1"
             id="path297" /></g><g
           id="g299"
           transform="translate(383.8672,128.1323)"><path
             d="M 0,0 38.133,-38.132"
             style="fill:none;stroke:#000000;stroke-width:20;stroke-linecap:round;stroke-linejoin:round;stroke-miterlimit:10;stroke-dasharray:none;stroke-opacity:1"
             id="path301" /></g><g
           id="g303"
           transform="translate(128.1328,128.1323)"><path
             d="M 0,0 -38.133,-38.132"
             style="fill:none;stroke:#000000;stroke-width:20;stroke-linecap:round;stroke-linejoin:round;stroke-miterlimit:10;stroke-dasharray:none;stroke-opacity:1"
             id="path305" /></g><g
           id="g307"
           transform="translate(256,75.168)"><path
             d="M 0,0 V -65.168"
             style="fill:none;stroke:#000000;stroke-width:20;stroke-linecap:round;stroke-linejoin:round;stroke-miterlimit:10;stroke-dasharray:none;stroke-opacity:1"
             id="path309" /></g><g
           id="g311"
           transform="translate(436.832,256)"><path
             d="M 0,0 H 65.168"
             style="fill:none;stroke:#000000;stroke-width:20;stroke-linecap:round;stroke-linejoin:round;stroke-miterlimit:10;stroke-dasharray:none;stroke-opacity:1"
             id="path313" /></g><g
           id="g315"
           transform="translate(75.168,256)"><path
             d="M 0,0 H -65.168"
             style="fill:none;stroke:#000000;stroke-width:20;stroke-linecap:round;stroke-linejoin:round;stroke-miterlimit:10;stroke-dasharray:none;stroke-opacity:1"
             id="path317" /></g></g></g></g></svg>
